<?xml version="1.0" encoding="utf-8"?>
<!-- Svg Vector Icons : http://www.onlinewebfonts.com/icon -->
<!DOCTYPE svg PUBLIC "-//W3C//DTD SVG 1.1//EN" "http://www.w3.org/Graphics/SVG/1.1/DTD/svg11.dtd">
<svg version="1.1" xmlns="http://www.w3.org/2000/svg" xmlns:xlink="http://www.w3.org/1999/xlink" x="0px" y="0px" viewBox="0 0 1000 1000" enable-background="new 0 0 1000 1000" xml:space="preserve">
<metadata> Svg Vector Icons : http://www.onlinewebfonts.com/icon </metadata>
<g><path d="M986.8,498.9c-6.3-49.9-21.7-97.7-45.7-142.1c-23.2-42.7-53.9-81.3-91.2-114.8c-36.8-33-79.1-60.1-125.7-80.7c-46-20.3-95.1-33.8-146-40c-21.6-7.5-49.3-15.4-78.5-23.8C423,75.7,318.3,45.7,279.7,9.8c-6.6-6.1-15.1-9.2-23.5-9.2c-8.2,0-16.3,2.9-22.8,8.7c-13.2,11.8-15.3,31.6-4.8,45.9c0.7,1,11.2,16,21.5,40.5c7.9,18.7,17.1,46.4,20.1,79.1c-37.2,18.8-71.7,41.8-102.8,68.5c-36.7,31.6-67.9,67.8-92.7,107.5c-25.3,40.5-43.5,83.9-54,129C9.7,526.6,7.2,574.4,13.2,622c6.9,54.5,24.5,106.1,52.4,153.4c26.8,45.4,62.3,85.6,105.5,119.4c86.1,67.4,197.6,104.5,313.9,104.5c23.3,0,47-1.5,70.3-4.4c65.3-8.3,127.1-27.4,183.8-57c55.2-28.8,103.2-66.2,142.9-111.2c40-45.4,69.5-96.3,87.7-151.4C988.5,618.1,994.3,558.7,986.8,498.9z M550.9,960.9c-22.3,2.8-44.3,4.2-66,4.2c-222.6,0-412.1-143.5-437.7-347.3c-22.3-177.9,87-344.8,258.3-421.8C305.2,102,256.3,35,256.3,35c61,56.7,235.5,92.2,314,120c197.9,22.7,358.9,161.5,382.4,348.2C980.9,726.9,801,929.3,550.9,960.9z"/><path d="M528.8,367.4c-23.8,3.7-38.9,39.5-39.4,86.1l83,22.6L506.7,546c14.9,36.1,37,59.2,58,55.9c30.3-4.7,46.8-61,36.8-125.7C591.7,411.5,559.1,362.7,528.8,367.4z"/><path d="M745.9,341.3c-21.3,2-35.8,38.7-36.5,86.2l73.3,17.9l-60.6,64.1c11.1,31.7,27.8,52.3,44.6,50.7c25.4-2.5,51.9-53.4,46.1-113.9C807.1,385.9,771.2,338.9,745.9,341.3z"/></g>
</svg>